<svg width="40" height="40" viewBox="0 0 40 40" fill="none" xmlns="http://www.w3.org/2000/svg">
<path d="M32.125 11.625L23.375 2.875C23.125 2.625 22.875 2.5 22.5 2.5H10C8.625 2.5 7.5 3.625 7.5 5V35C7.5 36.375 8.625 37.5 10 37.5H30C31.375 37.5 32.5 36.375 32.5 35V12.5C32.5 12.125 32.375 11.875 32.125 11.625ZM22.5 5.5L29.5 12.5H22.5V5.5ZM30 35H10V5H20V12.5C20 13.875 21.125 15 22.5 15H30V35Z" fill="#B6C2FD"/>
<path d="M12.5 27.5H27.5V30H12.5V27.5ZM12.5 20H27.5V22.5H12.5V20Z" fill="#B6C2FD"/>
</svg>
