<svg width="36" height="34" viewBox="0 0 36 34" fill="none" xmlns="http://www.w3.org/2000/svg">
<path d="M24.1391 31.1095C23.7566 31.1095 23.3898 30.9635 23.1194 30.7036C22.8489 30.4437 22.697 30.0912 22.697 29.7236V26.1203C22.7418 25.7058 22.6957 25.2869 22.5615 24.8907C22.4274 24.4944 22.2083 24.1296 21.9183 23.8197C21.7388 23.6326 21.6163 23.4016 21.5644 23.152C21.5125 22.9024 21.5331 22.6439 21.624 22.4048C21.7148 22.1657 21.8725 21.9553 22.0795 21.7966C22.2866 21.638 22.5352 21.5372 22.798 21.5053C26.3166 21.1034 29.5612 20.0224 29.5612 14.1601C29.5623 13.0653 29.2261 11.9948 28.595 11.0834C28.0126 10.2444 27.8 9.21781 28.0038 8.22846C28.1337 7.58309 28.1337 6.91974 28.0038 6.27436C26.924 6.62523 25.9073 7.13482 24.9899 7.78498C24.8164 7.90336 24.6179 7.98338 24.4084 8.01932C24.199 8.05526 23.9839 8.04623 23.7786 7.99286C21.1761 7.28614 18.4209 7.28614 15.8184 7.99286C15.6131 8.04623 15.398 8.05526 15.1885 8.01932C14.9791 7.98338 14.7806 7.90336 14.6071 7.78498C13.6841 7.12729 12.6566 6.61718 11.5644 6.27436C11.4272 6.91906 11.4272 7.58376 11.5644 8.22846C11.7534 9.23026 11.5312 10.2635 10.9443 11.1111C10.3159 12.0289 9.98014 13.103 9.97812 14.2017C9.97812 19.5928 12.6892 21.0341 16.7558 21.533C17.0219 21.5647 17.2735 21.6672 17.4824 21.8287C17.6912 21.9903 17.8491 22.2047 17.9382 22.4477C18.0221 22.6835 18.0382 22.9367 17.9849 23.1806C17.9316 23.4245 17.8109 23.6501 17.6354 23.8336C17.3549 24.1217 17.1396 24.4626 17.0031 24.8347C16.8666 25.2068 16.8119 25.6021 16.8423 25.9956V29.7236C16.8423 30.0912 16.6904 30.4437 16.4199 30.7036C16.1495 30.9635 15.7827 31.1095 15.4002 31.1095C15.0178 31.1095 14.651 30.9635 14.3805 30.7036C14.1101 30.4437 13.9582 30.0912 13.9582 29.7236V28.9337C12.5412 29.0903 11.1058 28.9078 9.77996 28.4024C8.45407 27.8971 7.27874 27.0846 6.35857 26.0372C5.88559 25.5333 5.31811 25.1196 4.68579 24.8176C4.5021 24.7721 4.32953 24.6922 4.17794 24.5827C4.02635 24.4731 3.89871 24.3358 3.80229 24.1788C3.70588 24.0218 3.64259 23.8481 3.61603 23.6676C3.58948 23.4871 3.60017 23.3033 3.64752 23.1268C3.69486 22.9502 3.77792 22.7844 3.89196 22.6387C4.00599 22.493 4.14877 22.3704 4.31213 22.2777C4.4755 22.185 4.65626 22.1242 4.84408 22.0987C5.03191 22.0732 5.22313 22.0834 5.40682 22.1289C6.51612 22.5173 7.50731 23.1651 8.29092 24.0138C9.73297 25.3996 11.175 26.6192 13.9149 26.1203C13.8667 25.3762 13.9797 24.6306 14.2466 23.9306C11.276 23.2099 7.03634 21.1588 7.03634 14.2294C7.03254 12.588 7.53429 10.9822 8.47839 9.61436C8.65375 9.36185 8.72091 9.05404 8.66586 8.7551C8.37446 7.25914 8.53973 5.71409 9.14173 4.3064C9.22353 4.1187 9.34733 3.95061 9.50435 3.81408C9.66136 3.67756 9.84773 3.57593 10.0502 3.51644C10.5405 3.37785 12.2998 3.10067 15.631 5.17951C18.3276 4.55586 21.1396 4.55586 23.8362 5.17951C27.1674 3.10067 28.9267 3.36399 29.4026 3.51644C29.605 3.57593 29.7914 3.67756 29.9484 3.81408C30.1054 3.95061 30.2292 4.1187 30.311 4.3064C30.9142 5.71866 31.0795 7.26847 30.7869 8.76896C30.7574 8.90416 30.7562 9.04365 30.7835 9.17929C30.8107 9.31493 30.8658 9.44398 30.9455 9.55892C31.8924 10.9307 32.3943 12.5417 32.3876 14.1878C32.3876 21.2143 28.1768 23.2515 25.1773 23.889C25.4416 24.6327 25.5494 25.4194 25.4946 26.2035V29.7236C25.4953 30.0772 25.3553 30.4177 25.1033 30.6753C24.8513 30.933 24.5063 31.0883 24.1391 31.1095V31.1095Z" fill="#B6C3FD"/>
</svg>
