<svg width="40" height="40" viewBox="0 0 40 40" fill="white" xmlns="http://www.w3.org/2000/svg">
<path d="M27.0666 36.6667C26.6246 36.6667 26.2007 36.4912 25.8881 36.1786C25.5755 35.866 25.3999 35.4421 25.3999 35.0001V30.6667C25.4517 30.1683 25.3984 29.6645 25.2434 29.188C25.0883 28.7114 24.8351 28.2727 24.4999 27.9001C24.2924 27.675 24.1509 27.3972 24.0909 27.097C24.0309 26.7969 24.0547 26.486 24.1597 26.1985C24.2648 25.911 24.4469 25.6579 24.6863 25.4671C24.9256 25.2763 25.2129 25.1551 25.5166 25.1167C29.5833 24.6334 33.3333 23.3334 33.3333 16.2834C33.3346 14.9669 32.946 13.6794 32.2166 12.5834C31.5435 11.5745 31.2978 10.3399 31.5333 9.15008C31.6835 8.37395 31.6835 7.57621 31.5333 6.80008C30.2853 7.22204 29.1102 7.83487 28.0499 8.61675C27.8495 8.75911 27.62 8.85535 27.3779 8.89857C27.1359 8.94179 26.8873 8.93092 26.6499 8.86675C23.6422 8.01684 20.4577 8.01684 17.4499 8.86675C17.2126 8.93092 16.964 8.94179 16.7219 8.89857C16.4799 8.85535 16.2504 8.75911 16.0499 8.61675C14.9832 7.82581 13.7957 7.21236 12.5333 6.80008C12.3748 7.5754 12.3748 8.37477 12.5333 9.15008C12.7518 10.3548 12.4949 11.5974 11.8166 12.6167C11.0904 13.7205 10.7023 15.0122 10.6999 16.3334C10.6999 22.8167 13.8333 24.5501 18.5333 25.1501C18.8408 25.1882 19.1316 25.3114 19.3731 25.5057C19.6145 25.7 19.7969 25.9578 19.8999 26.2501C19.9968 26.5337 20.0155 26.8382 19.9539 27.1315C19.8923 27.4248 19.7527 27.6961 19.5499 27.9167C19.2258 28.2633 18.977 28.6732 18.8192 29.1207C18.6614 29.5682 18.5981 30.0436 18.6333 30.5167V35.0001C18.6333 35.4421 18.4577 35.866 18.1451 36.1786C17.8326 36.4912 17.4086 36.6667 16.9666 36.6667C16.5246 36.6667 16.1007 36.4912 15.7881 36.1786C15.4755 35.866 15.2999 35.4421 15.2999 35.0001V34.0501C13.6622 34.2384 12.0033 34.019 10.4709 33.4112C8.9385 32.8035 7.5801 31.8264 6.51661 30.5667C5.96995 29.9608 5.31408 29.4633 4.58328 29.1001C4.37097 29.0454 4.17152 28.9494 3.99632 28.8176C3.82112 28.6858 3.67359 28.5208 3.56216 28.3319C3.45073 28.1431 3.37758 27.9342 3.34689 27.7171C3.31619 27.5001 3.32856 27.2791 3.38328 27.0667C3.43799 26.8544 3.53399 26.655 3.66579 26.4798C3.79759 26.3046 3.9626 26.1571 4.15141 26.0456C4.34023 25.9342 4.54914 25.8611 4.76622 25.8304C4.9833 25.7997 5.20431 25.812 5.41661 25.8667C6.69869 26.3338 7.84428 27.1128 8.74994 28.1334C10.4166 29.8001 12.0833 31.2667 15.2499 30.6667C15.1943 29.7719 15.3248 28.8752 15.6333 28.0334C12.1999 27.1667 7.29994 24.7001 7.29994 16.3667C7.29555 14.3928 7.87546 12.4617 8.96661 10.8167C9.16928 10.5131 9.2469 10.1429 9.18328 9.78342C8.84649 7.98437 9.03751 6.12631 9.73328 4.43342C9.82781 4.20769 9.9709 4.00555 10.1524 3.84136C10.3338 3.67718 10.5492 3.55497 10.7833 3.48342C11.3499 3.31675 13.3833 2.98342 17.2333 5.48342C20.3499 4.73342 23.6 4.73342 26.7166 5.48342C30.5666 2.98342 32.5999 3.30008 33.1499 3.48342C33.384 3.55497 33.5994 3.67718 33.7808 3.84136C33.9623 4.00555 34.1054 4.20769 34.1999 4.43342C34.8971 6.1318 35.0881 7.99559 34.7499 9.80008C34.7158 9.96267 34.7145 10.1304 34.746 10.2935C34.7774 10.4567 34.8411 10.6119 34.9333 10.7501C36.0276 12.3998 36.6076 14.3371 36.5999 16.3167C36.5999 24.7667 31.7333 27.2167 28.2666 27.9834C28.572 28.8777 28.6966 29.8238 28.6333 30.7667V35.0001C28.634 35.4253 28.4722 35.8348 28.181 36.1446C27.8897 36.4544 27.4911 36.6412 27.0666 36.6667V36.6667Z"/>
</svg>
