<svg width="40" height="40" viewBox="0 0 40 40" fill="none" xmlns="http://www.w3.org/2000/svg">
<g clip-path="url(#clip0_149_66)">
<path d="M39.2451 18.2175L21.7801 0.754986C21.541 0.51574 21.257 0.325953 20.9445 0.196468C20.632 0.0669822 20.2971 0.000335693 19.9588 0.000335693C19.6206 0.000335693 19.2856 0.0669822 18.9731 0.196468C18.6606 0.325953 18.3767 0.51574 18.1376 0.754986L14.5126 4.37999L19.1126 8.97999C19.6551 8.79476 20.2387 8.76578 20.7969 8.89636C21.3551 9.02694 21.8654 9.31181 22.2694 9.71847C22.6735 10.1251 22.9551 10.6372 23.082 11.1962C23.209 11.7552 23.1763 12.3387 22.9876 12.88L27.4201 17.315C28.0759 17.0841 28.7907 17.0834 29.447 17.313C30.1032 17.5426 30.6617 17.9889 31.0304 18.5782C31.3992 19.1676 31.5563 19.865 31.4758 20.5556C31.3953 21.2461 31.082 21.8887 30.5876 22.3775C30.087 22.8811 29.4272 23.1953 28.7207 23.2664C28.0142 23.3376 27.305 23.1612 26.7141 22.7675C26.1232 22.3737 25.6874 21.7871 25.481 21.1077C25.2746 20.4283 25.3105 19.6983 25.5826 19.0425L21.4501 14.9075V25.79C22.0782 26.1009 22.5808 26.6177 22.8741 27.2543C23.1674 27.8909 23.2337 28.6087 23.0618 29.2882C22.89 29.9677 22.4905 30.5678 21.9299 30.9885C21.3693 31.4091 20.6814 31.6249 19.981 31.5999C19.2805 31.5749 18.6098 31.3106 18.0806 30.851C17.5515 30.3914 17.1958 29.7644 17.0729 29.0744C16.95 28.3843 17.0673 27.673 17.4052 27.059C17.7432 26.445 18.2814 25.9653 18.9301 25.7V14.7175C18.5558 14.5641 18.2156 14.3382 17.929 14.0527C17.6425 13.7673 17.4153 13.4279 17.2605 13.0542C17.1057 12.6805 17.0264 12.2799 17.0272 11.8754C17.028 11.4709 17.1088 11.0706 17.2651 10.6975L12.7326 6.16249L0.75758 18.1375C0.518334 18.3766 0.328547 18.6605 0.199062 18.973C0.0695762 19.2855 0.00292969 19.6205 0.00292969 19.9587C0.00292969 20.297 0.0695762 20.6319 0.199062 20.9444C0.328547 21.2569 0.518334 21.5409 0.75758 21.78L18.2226 39.245C18.4617 39.4842 18.7456 39.674 19.0581 39.8035C19.3706 39.933 19.7056 39.9996 20.0438 39.9996C20.3821 39.9996 20.717 39.933 21.0295 39.8035C21.342 39.674 21.626 39.4842 21.8651 39.245L39.2476 21.8625C39.7302 21.3792 40.0012 20.7242 40.0012 20.0412C40.0012 19.3583 39.7302 18.7033 39.2476 18.22" fill="#B6C2FD"/>
</g>
<defs>
<clipPath id="clip0_149_66">
<rect width="40" height="40" fill="white"/>
</clipPath>
</defs>
</svg>
